<svg width="48" height="48" viewBox="0 0 48 48" fill="none" xmlns="http://www.w3.org/2000/svg">
<rect width="48" height="48" fill="black"/>
<path d="M28.4584 22.0511L27.0692 22.4432C26.9328 22.0511 26.7396 21.696 26.4896 21.3778C26.2396 21.0597 25.9129 20.8068 25.5095 20.6193C25.1118 20.4318 24.6175 20.3381 24.0265 20.3381C23.1402 20.3381 22.4129 20.5483 21.8447 20.9688C21.2765 21.3892 20.9925 21.9318 20.9925 22.5966C20.9925 23.1591 21.1856 23.6165 21.572 23.9688C21.964 24.3153 22.5663 24.5909 23.3788 24.7955L25.3561 25.2812C26.4527 25.5483 27.2737 25.9716 27.8192 26.5511C28.3703 27.1307 28.6459 27.858 28.6459 28.733C28.6459 29.4716 28.4413 30.1278 28.0322 30.7017C27.6231 31.2756 27.0521 31.7273 26.3192 32.0568C25.5919 32.3807 24.7481 32.5426 23.7879 32.5426C22.5095 32.5426 21.4555 32.2557 20.626 31.6818C19.7964 31.1023 19.2652 30.267 19.0322 29.1761L20.4896 28.8182C20.6771 29.5966 21.0436 30.1847 21.589 30.5824C22.1402 30.9801 22.8646 31.179 23.7623 31.179C24.768 31.179 25.572 30.9545 26.1743 30.5057C26.7765 30.0511 27.0777 29.483 27.0777 28.8011C27.0777 28.2727 26.9015 27.8295 26.5493 27.4716C26.197 27.108 25.6629 26.8409 24.947 26.6705L22.8078 26.1591C21.6714 25.8864 20.8305 25.4545 20.2851 24.8636C19.7396 24.2727 19.4669 23.5398 19.4669 22.6648C19.4669 21.9432 19.6629 21.3097 20.055 20.7642C20.447 20.2131 20.9868 19.7812 21.6743 19.4688C22.3618 19.1562 23.1459 19 24.0265 19C25.2254 19 26.1828 19.2727 26.8987 19.8182C27.6203 20.358 28.1402 21.1023 28.4584 22.0511Z" fill="white" fill-opacity="0.3"/>
<path d="M40.7631 22.0511L39.3738 22.4432C39.2375 22.0511 39.0443 21.696 38.7943 21.3778C38.5443 21.0597 38.2176 20.8068 37.8142 20.6193C37.4165 20.4318 36.9221 20.3381 36.3312 20.3381C35.4449 20.3381 34.7176 20.5483 34.1494 20.9688C33.5812 21.3892 33.2971 21.9318 33.2971 22.5966C33.2971 23.1591 33.4903 23.6165 33.8767 23.9688C34.2687 24.3153 34.871 24.5909 35.6835 24.7955L37.6608 25.2812C38.7574 25.5483 39.5784 25.9716 40.1238 26.5511C40.675 27.1307 40.9506 27.858 40.9506 28.733C40.9506 29.4716 40.746 30.1278 40.3369 30.7017C39.9278 31.2756 39.3568 31.7273 38.6238 32.0568C37.8966 32.3807 37.0528 32.5426 36.0926 32.5426C34.8142 32.5426 33.7602 32.2557 32.9307 31.6818C32.1011 31.1023 31.5699 30.267 31.3369 29.1761L32.7943 28.8182C32.9818 29.5966 33.3483 30.1847 33.8937 30.5824C34.4449 30.9801 35.1693 31.179 36.067 31.179C37.0727 31.179 37.8767 30.9545 38.479 30.5057C39.0812 30.0511 39.3824 29.483 39.3824 28.8011C39.3824 28.2727 39.2062 27.8295 38.854 27.4716C38.5017 27.108 37.9676 26.8409 37.2517 26.6705L35.1125 26.1591C33.9761 25.8864 33.1352 25.4545 32.5898 24.8636C32.0443 24.2727 31.7716 23.5398 31.7716 22.6648C31.7716 21.9432 31.9676 21.3097 32.3596 20.7642C32.7517 20.2131 33.2915 19.7812 33.979 19.4688C34.6665 19.1562 35.4506 19 36.3312 19C37.5301 19 38.4875 19.2727 39.2034 19.8182C39.925 20.358 40.4449 21.1023 40.7631 22.0511Z" fill="white" fill-opacity="0.3"/>
<path d="M20.6603 35L12 17L29.3205 17L20.6603 35Z" fill="white" fill-opacity="0.2"/>
<path d="M16.6603 35L8 17L25.3205 17L16.6603 35Z" fill="white"/>
</svg>
